#!OML:ASF E:/inclinewalkrobotboard/Project1/Captureday1/Session1/subject1.ASF
:FULLY-SPECIFIED
:DEGREES
51
root 0 0 0 -2.157563124847286 -4.785459454231598 -5.988271871146409
lowerback 10.481022692741995 1.9642372977416733 4.898678978028039
upperback 0.49395044073211736 3.2683750370284255 1.6846240297227695
thorax -5.232834856989372 1.5199684230739183 -1.4364060891068209
lowerneck -16.987398443912223 -3.2231112560079835 -1.6131683550485425
upperneck 19.20652919816846 -4.161476086423045 0.6278020289598851
head 8.886089571404462 -1.9910747360371173 -0.04794508492684857
rclavicle -5.021912060227924E-16 -3.031783958119504E-16
rhumerus -28.691819122827958 -17.633514818831742 -77.99070191722276
rradius 27.033517574511777
rwrist 4.462182163266766
rhand -17.74061692480524 22.206457020345756
rfingers 7.125020000000021
rthumb 8.513772888115458 -7.605137724903425
lclavicle -6.744237797920114E-16 -1.967286937175428E-16
lhumerus -30.02648741077016 -1.8451822979450547 82.27808127810536
lradius 32.950444474739335
lwrist 5.732017058758583
lhand -25.43115382967023 23.98933738228362
lfingers 7.1236981667149255
lthumb 1.0800426392969502 53.55697136042079
rfemur -2.8528727699208503 7.708660038278872 31.087916108611953
rtibia 26.549442061675812
rfoot -14.429014799949782 -6.010584099886953
rtoes 2.184681051658824
lfemur -18.99577602744124 -1.221937546507947 -14.308358813850429
ltibia 40.15392334369632
lfoot -3.4660047131634446 -1.8114896214983354
ltoes -3.623271268432147
52
root 0 0 0 -2.1675424407297887 -4.807855735357061 -5.9159392863325335
lowerback 10.477233811208817 1.9414577873980634 4.820330639794633
upperback 0.5057737043043793 3.228978057271149 1.6729892724553381
thorax -5.2190698072189186 1.5018456481614493 -1.3997155799517498
lowerneck -16.931706631974933 -3.217308524817409 -1.639470201350715
upperneck 19.17321198182902 -4.153936159817413 0.6562178857603582
head 8.86727142182276 -1.9885997832723445 -0.03244008217721239
rclavicle -4.88517806259453E-16 -3.1216833617540857E-16
rhumerus -28.885957437150516 -17.813187178906446 -78.03109080073932
rradius 26.856411511615303
rwrist 4.422060679751106
rhand -17.70834552340957 22.346969972094712
rfingers 7.125020000000022
rthumb 8.543301883820428 -7.467283487541266
lclavicle -6.672577911536025E-16 -1.9794747913971223E-16
lhumerus -30.109575034769186 -1.7484931641043424 82.28162662892959
lradius 32.76655312607684
lwrist 5.713258608003194
lhand -25.4859415048521 23.956430501803833
lfingers 7.123762027277996
lthumb 1.0284209016512236 53.54258779764562
rfemur -3.788540126400285 7.30040597203144 30.58685084211212
rtibia 28.80051699278166
rfoot -13.390846788277535 -5.892612413602823
rtoes 2.6810249437520772
lfemur -17.064154153844004 -1.5533951553607934 -15.420781647158908
ltibia 37.28902508600322
lfoot -4.966505046327205 -1.197246988679531
ltoes -3.441726588061993
53
root 0 0 0 -2.176254062482136 -4.810031019284386 -5.8523692607216145
lowerback 10.474296780774214 1.919210536597225 4.75074839798
upperback 0.5136901163682741 3.1913910381891886 1.6652097630136478
thorax -5.2097112840127195 1.4846171356364284 -1.3641366063549605
lowerneck -16.89455958283635 -3.211708855124491 -1.6582118866095437
upperneck 19.152583558910365 -4.145950747737212 0.6739876848590942
head 8.854978902451037 -1.9858546149945115 -0.0220805259984429
rclavicle -4.756452480139539E-16 -3.1882407929988297E-16
rhumerus -29.05380453809683 -17.969280158838707 -78.06491463730622
rradius 26.704554050700075
rwrist 4.387709207892941
rhand -17.680911459377036 22.468085620197012
rfingers 7.125020000000024
rthumb 8.568578521644689 -7.348591881983879
lclavicle -6.629787780929887E-16 -1.965103880544816E-16
lhumerus -30.15755876355101 -1.686572870061429 82.28205845462823
lradius 32.65473479942685
lwrist 5.703031899676031
lhand -25.52071484431835 23.937881645463026
lfingers 7.123818820854004
lthumb 0.9960275949519453 53.534594950638166
rfemur -5.042562885637718 6.69297142542036 29.969548930835533
rtibia 32.01032451397453
rfoot -11.874013444555116 -5.684459428357087
rtoes 3.4890911150382005
lfemur -14.714375759784685 -1.9109994124959244 -16.744454914039355
ltibia 34.13961479765145
lfoot -6.643978455017526 -0.5816580922806756
ltoes -3.268575868960733
54
root 0 0 0 -2.1878994326009633 -4.811928523082884 -5.769942238623389
lowerback 10.469929205094683 1.890769255464186 4.659717688167492
upperback 0.5238424728347253 3.1430515587375534 1.654743793864331
thorax -5.197572910627889 1.462512346545 -1.3181981842324357
lowerneck -16.846352652155332 -3.2045485551533837 -1.6825400936664403
upperneck 19.12561032450347 -4.13587896891306 0.6973431505663443
head 8.838844280198582 -1.9824704213557465 -0.008512452941590087
rclavicle -4.607825250130601E-16 -3.234591351192305E-16
rhumerus -29.221254637360694 -18.127258472097637 -78.09599769230753
rradius 26.557308005560234
rwrist 4.3533290968314216
rhand -17.65550077663576 22.588002980286948
rfingers 7.125020000000026
rthumb 8.59274144914719 -7.230989126966893
lclavicle -6.575723902547334E-16 -1.9181364954745553E-16
lhumerus -30.22994772871039 -1.5944062855238244 82.2823751252259
lradius 32.489126358828095
lwrist 5.686041476090368
lhand -25.571816588314 23.908811322401704
lfingers 7.12390314729855
lthumb 0.9480683297953014 53.52306154709159
rfemur -7.3475918503177144 5.62875116913017 28.856139693583053
rtibia 37.509667487341616
rfoot -9.206813464423268 -5.3493028370450615
rtoes 4.851546276862748
lfemur -10.6594895701691 -2.5592442434187617 -19.064419972947817
ltibia 28.44006616679399
lfoot -9.657802040696275 0.5932769621031033
ltoes -2.8875561856956207
